<svg width="425" height="417" viewBox="0 0 425 417" fill="none" xmlns="http://www.w3.org/2000/svg">
<g opacity="0.3">
<path d="M424.5 208.009C424.5 322.602 329.594 415.517 212.5 415.517C95.4055 415.517 0.5 322.602 0.5 208.009C0.5 93.4148 95.4055 0.5 212.5 0.5C329.594 0.5 424.5 93.4148 424.5 208.009Z" stroke="#002478"/>
<path d="M252.072 177.24L277.167 141.013L277.256 140.884V140.728V113.93V113.43H276.756H149.027H148.527V113.93V147.108V147.608H149.027H225.781L174.545 225.824L174.038 226.598H174.963H209.502H209.761L209.91 226.387L226.964 202.353C238.548 202.455 245.624 209.421 249.581 218.2C253.577 227.066 254.352 237.719 253.322 244.784L253.32 244.792C252.031 254.767 248.243 261.092 242.24 264.948C236.204 268.825 227.852 270.261 217.322 270.261C207.92 270.261 196.207 266.375 185.08 261.184C173.967 255.998 163.504 249.539 156.623 244.454L156.152 244.106L155.882 244.626L139.46 276.273L139.257 276.664L139.619 276.914C157.361 289.176 182.753 303.163 208.46 303.163C260.599 303.163 285.597 268.367 285.597 237.965C285.597 224.837 285.342 210.928 280.936 199.66C278.728 194.014 275.473 189.016 270.677 185.107C266.033 181.322 259.97 178.579 252.072 177.24Z" stroke="#002478"/>
</g>
</svg>
