<svg width="22" height="25" viewBox="0 0 22 25" fill="none" xmlns="http://www.w3.org/2000/svg">
<path d="M4.62841 4.63914L2.53683 6.12357C0.487723 7.57347 0.487723 10.8185 2.53683 12.2684L8.92832 16.7908C10.075 17.6078 11.9648 17.6078 13.1115 16.7908L19.4711 12.2684C21.5096 10.8185 21.5096 7.58498 19.4711 6.13508L13.1115 1.61276C11.9648 0.795748 10.075 0.795748 8.92832 1.61276" stroke="#292D32" stroke-width="2" stroke-linecap="round" stroke-linejoin="round"/>
<path d="M4.23513 13.7412L4.22452 19.1381C4.22452 20.5995 5.265 22.1645 6.53905 22.6248L9.92588 23.8445C10.5098 24.0516 11.476 24.0516 12.0705 23.8445L15.4574 22.6248C16.7315 22.1645 17.7719 20.5995 17.7719 19.1381V13.7987" stroke="#292D32" stroke-width="2" stroke-linecap="round" stroke-linejoin="round"/>
<path d="M20.9797 15.9507V9.04639" stroke="#292D32" stroke-width="2" stroke-linecap="round" stroke-linejoin="round"/>
</svg>
