<svg width="15" height="16" viewBox="0 0 15 16" fill="none" xmlns="http://www.w3.org/2000/svg">
<path d="M12.7064 1.73589C11.7354 1.15431 10.6972 0.731638 9.61181 0.490967C9.47851 0.799499 9.32277 1.21448 9.2154 1.5446C8.06156 1.32246 6.91834 1.32246 5.78572 1.5446C5.67837 1.21448 5.5191 0.799499 5.3846 0.490967C4.298 0.731638 3.2586 1.15586 2.28762 1.73897C0.329152 5.52767 -0.201757 9.22227 0.0636979 12.8644C1.36266 14.1062 2.62151 14.8606 3.85911 15.3542C4.16468 14.8158 4.43721 14.2435 4.67199 13.6404C4.22484 13.4228 3.79658 13.1544 3.39192 12.8428C3.49927 12.741 3.60429 12.6346 3.70574 12.525C6.17387 14.0029 8.85556 14.0029 11.2942 12.525C11.3969 12.6346 11.5018 12.741 11.608 12.8428C11.2022 13.156 10.7727 13.4244 10.3256 13.6419C10.5604 14.2435 10.8317 14.8174 11.1385 15.3558C12.3773 14.8621 13.6373 14.1078 14.9362 12.8644C15.2477 8.64224 14.4042 4.98157 12.7064 1.73589ZM5.00823 10.6245C4.26733 10.6245 3.65972 9.73904 3.65972 8.66075C3.65972 7.58245 4.25435 6.69544 5.00823 6.69544C5.76214 6.69544 6.36972 7.5809 6.35675 8.66075C6.35792 9.73904 5.76214 10.6245 5.00823 10.6245ZM9.99171 10.6245C9.2508 10.6245 8.6432 9.73904 8.6432 8.66075C8.6432 7.58245 9.23781 6.69544 9.99171 6.69544C10.7456 6.69544 11.3532 7.5809 11.3402 8.66075C11.3402 9.73904 10.7456 10.6245 9.99171 10.6245Z" fill="#5865F2"/>
</svg>
