<svg width="10" height="8" viewBox="0 0 10 8" fill="none" xmlns="http://www.w3.org/2000/svg">
<path d="M9.0625 0.25C9.58008 0.25 10 0.669727 10 1.1875C10 1.48242 9.86133 1.75977 9.625 1.9375L5.375 5.125C5.15234 5.29102 4.84766 5.29102 4.625 5.125L0.375 1.9375C0.138926 1.75977 0 1.48242 0 1.1875C0 0.669727 0.419727 0.25 0.9375 0.25H9.0625ZM4.25 5.625C4.69531 5.95898 5.30469 5.95898 5.75 5.625L10 2.4375V6.5C10 7.18945 9.43945 7.75 8.75 7.75H1.25C0.55957 7.75 0 7.18945 0 6.5V2.4375L4.25 5.625Z" fill="white"/>
</svg>
