<svg width="24" height="24" viewBox="0 0 24 24" fill="none" xmlns="http://www.w3.org/2000/svg">
<g id="Group 4">
<path id="Vector" d="M12 24C18.6274 24 24 18.6274 24 12C24 5.37258 18.6274 0 12 0C5.37258 0 0 5.37258 0 12C0 18.6274 5.37258 24 12 24Z" fill="#3B5998"/>
<path id="Vector_2" fill-rule="evenodd" clip-rule="evenodd" d="M15.189 7.77458C14.815 7.69976 14.3099 7.6439 13.9922 7.6439C13.132 7.6439 13.0762 8.01788 13.0762 8.61632V9.68156H15.2264L15.039 11.8881H13.0762V18.5999H10.3838V11.8881H9V9.68156H10.3838V8.31668C10.3838 6.44708 11.2625 5.3999 13.4686 5.3999C14.2351 5.3999 14.7961 5.5121 15.5252 5.66168L15.189 7.77458Z" fill="white"/>
</g>
</svg>
