<svg width="20" height="20" viewBox="0 0 20 20" fill="none" xmlns="http://www.w3.org/2000/svg">
<path d="M9.68162 5.05879C6.9843 5.05879 4.80863 7.26309 4.80863 9.9959C4.80863 12.7287 6.9843 14.933 9.68162 14.933C12.3789 14.933 14.5546 12.7287 14.5546 9.9959C14.5546 7.26309 12.3789 5.05879 9.68162 5.05879ZM9.68162 13.2057C7.93854 13.2057 6.51354 11.7662 6.51354 9.9959C6.51354 8.22559 7.9343 6.78613 9.68162 6.78613C11.4289 6.78613 12.8497 8.22559 12.8497 9.9959C12.8497 11.7662 11.4247 13.2057 9.68162 13.2057ZM15.8905 4.85684C15.8905 5.49707 15.3816 6.0084 14.7539 6.0084C14.122 6.0084 13.6173 5.49277 13.6173 4.85684C13.6173 4.2209 14.1263 3.70527 14.7539 3.70527C15.3816 3.70527 15.8905 4.2209 15.8905 4.85684ZM19.118 6.02559C19.0459 4.48301 18.6981 3.1166 17.5827 1.99082C16.4716 0.865039 15.1229 0.512695 13.6004 0.435352C12.0312 0.345117 7.32782 0.345117 5.75863 0.435352C4.24032 0.508398 2.89166 0.860742 1.77626 1.98652C0.660857 3.1123 0.31733 4.47871 0.240991 6.02129C0.151929 7.61113 0.151929 12.3764 0.240991 13.9662C0.313089 15.5088 0.660857 16.8752 1.77626 18.001C2.89166 19.1268 4.23608 19.4791 5.75863 19.5564C7.32782 19.6467 12.0312 19.6467 13.6004 19.5564C15.1229 19.4834 16.4716 19.1311 17.5827 18.001C18.6939 16.8752 19.0417 15.5088 19.118 13.9662C19.2071 12.3764 19.2071 7.61543 19.118 6.02559ZM17.0908 15.6721C16.76 16.5143 16.1196 17.1631 15.2841 17.5025C14.033 18.0053 11.0642 17.8893 9.68162 17.8893C8.29903 17.8893 5.32604 18.001 4.07916 17.5025C3.24791 17.1674 2.60751 16.5186 2.27246 15.6721C1.77626 14.4045 1.89077 11.3967 1.89077 9.9959C1.89077 8.59512 1.7805 5.58301 2.27246 4.31973C2.60327 3.47754 3.24367 2.82871 4.07916 2.48926C5.33028 1.98652 8.29903 2.10254 9.68162 2.10254C11.0642 2.10254 14.0372 1.99082 15.2841 2.48926C16.1153 2.82441 16.7557 3.47324 17.0908 4.31973C17.587 5.58731 17.4725 8.59512 17.4725 9.9959C17.4725 11.3967 17.587 14.4088 17.0908 15.6721Z" fill="black"/>
</svg>
