<svg width="10" height="10" viewBox="0 0 10 10" fill="none" xmlns="http://www.w3.org/2000/svg">
<path d="M5.0022 2.75391C3.58255 2.75391 2.43746 3.75586 2.43746 4.99805C2.43746 6.24023 3.58255 7.24219 5.0022 7.24219C6.42184 7.24219 7.56693 6.24023 7.56693 4.99805C7.56693 3.75586 6.42184 2.75391 5.0022 2.75391ZM5.0022 6.45703C4.08479 6.45703 3.33479 5.80273 3.33479 4.99805C3.33479 4.19336 4.08255 3.53906 5.0022 3.53906C5.92184 3.53906 6.66961 4.19336 6.66961 4.99805C6.66961 5.80273 5.91961 6.45703 5.0022 6.45703ZM8.27005 2.66211C8.27005 2.95313 8.0022 3.18555 7.67184 3.18555C7.33925 3.18555 7.07363 2.95117 7.07363 2.66211C7.07363 2.37305 7.34148 2.13867 7.67184 2.13867C8.0022 2.13867 8.27005 2.37305 8.27005 2.66211ZM9.96872 3.19336C9.93077 2.49219 9.74773 1.87109 9.16068 1.35938C8.57586 0.847656 7.86604 0.6875 7.0647 0.652344C6.2388 0.611328 3.76336 0.611328 2.93747 0.652344C2.13836 0.685547 1.42854 0.845703 0.841483 1.35742C0.254429 1.86914 0.0736258 2.49023 0.0334473 3.19141C-0.0134277 3.91406 -0.0134277 6.08008 0.0334473 6.80273C0.0713937 7.50391 0.254429 8.125 0.841483 8.63672C1.42854 9.14844 2.13613 9.30859 2.93747 9.34375C3.76336 9.38477 6.2388 9.38477 7.0647 9.34375C7.86604 9.31055 8.57586 9.15039 9.16068 8.63672C9.7455 8.125 9.92854 7.50391 9.96872 6.80273C10.0156 6.08008 10.0156 3.91602 9.96872 3.19336ZM8.90175 7.57813C8.72764 7.96094 8.39059 8.25586 7.95086 8.41016C7.29238 8.63867 5.72988 8.58594 5.0022 8.58594C4.27452 8.58594 2.70979 8.63672 2.05354 8.41016C1.61604 8.25781 1.27898 7.96289 1.10264 7.57813C0.841483 7.00195 0.901751 5.63477 0.901751 4.99805C0.901751 4.36133 0.843715 2.99219 1.10264 2.41797C1.27675 2.03516 1.6138 1.74023 2.05354 1.58594C2.71202 1.35742 4.27452 1.41016 5.0022 1.41016C5.72988 1.41016 7.29461 1.35938 7.95086 1.58594C8.38836 1.73828 8.72541 2.0332 8.90175 2.41797C9.16291 2.99414 9.10264 4.36133 9.10264 4.99805C9.10264 5.63477 9.16291 7.00391 8.90175 7.57813Z" fill="white"/>
</svg>
