<svg width="24" height="24" viewBox="0 0 24 24" fill="none" xmlns="http://www.w3.org/2000/svg">
<g id="Group 6">
<path id="Vector" d="M18.8571 0H5.14286C2.30254 0 0 2.30254 0 5.14286V18.8571C0 21.6975 2.30254 24 5.14286 24H18.8571C21.6975 24 24 21.6975 24 18.8571V5.14286C24 2.30254 21.6975 0 18.8571 0Z" fill="url(#paint0_radial_229_961)"/>
<path id="Vector_2" d="M18.8571 0H5.14286C2.30254 0 0 2.30254 0 5.14286V18.8571C0 21.6975 2.30254 24 5.14286 24H18.8571C21.6975 24 24 21.6975 24 18.8571V5.14286C24 2.30254 21.6975 0 18.8571 0Z" fill="url(#paint1_radial_229_961)"/>
<path id="Vector_3" d="M18.8571 0H5.14286C2.30254 0 0 2.30254 0 5.14286V18.8571C0 21.6975 2.30254 24 5.14286 24H18.8571C21.6975 24 24 21.6975 24 18.8571V5.14286C24 2.30254 21.6975 0 18.8571 0Z" fill="url(#paint2_radial_229_961)"/>
<path id="Vector_4" d="M18.0001 7.28571C18.0001 7.99577 17.4245 8.57143 16.7144 8.57143C16.0044 8.57143 15.4287 7.99577 15.4287 7.28571C15.4287 6.57563 16.0044 6 16.7144 6C17.4245 6 18.0001 6.57563 18.0001 7.28571Z" fill="white"/>
<path id="Vector_5" fill-rule="evenodd" clip-rule="evenodd" d="M12.0001 16.2858C14.367 16.2858 16.2858 14.367 16.2858 12.0001C16.2858 9.63316 14.367 7.71436 12.0001 7.71436C9.63316 7.71436 7.71436 9.63316 7.71436 12.0001C7.71436 14.367 9.63316 16.2858 12.0001 16.2858ZM12.0001 14.5715C13.4203 14.5715 14.5715 13.4203 14.5715 12.0001C14.5715 10.5799 13.4203 9.42864 12.0001 9.42864C10.5799 9.42864 9.42864 10.5799 9.42864 12.0001C9.42864 13.4203 10.5799 14.5715 12.0001 14.5715Z" fill="white"/>
<path id="Vector_6" fill-rule="evenodd" clip-rule="evenodd" d="M3.42871 11.657C3.42871 8.77678 3.42871 7.33661 3.98925 6.23652C4.48231 5.26882 5.26907 4.48207 6.23676 3.989C7.33685 3.42847 8.77703 3.42847 11.6573 3.42847H12.343C15.2233 3.42847 16.6634 3.42847 17.7635 3.989C18.7312 4.48207 19.518 5.26882 20.011 6.23652C20.5716 7.33661 20.5716 8.77678 20.5716 11.657V12.3428C20.5716 15.223 20.5716 16.6632 20.011 17.7632C19.518 18.731 18.7312 19.5177 17.7635 20.0108C16.6634 20.5713 15.2233 20.5713 12.343 20.5713H11.6573C8.77703 20.5713 7.33685 20.5713 6.23676 20.0108C5.26907 19.5177 4.48231 18.731 3.98925 17.7632C3.42871 16.6632 3.42871 15.223 3.42871 12.3428V11.657ZM11.6573 5.14275H12.343C13.8115 5.14275 14.8096 5.14409 15.5812 5.20712C16.3328 5.26853 16.7172 5.37983 16.9853 5.51644C17.6304 5.84516 18.1549 6.36966 18.4836 7.01475C18.6202 7.28287 18.7315 7.66721 18.7929 8.41884C18.8559 9.19044 18.8573 10.1886 18.8573 11.657V12.3428C18.8573 13.8112 18.8559 14.8094 18.7929 15.581C18.7315 16.3326 18.6202 16.7169 18.4836 16.985C18.1549 17.6301 17.6304 18.1546 16.9853 18.4833C16.7172 18.62 16.3328 18.7313 15.5812 18.7927C14.8096 18.8557 13.8115 18.857 12.343 18.857H11.6573C10.1888 18.857 9.19068 18.8557 8.41908 18.7927C7.66745 18.7313 7.28311 18.62 7.015 18.4833C6.3699 18.1546 5.8454 17.6301 5.51669 16.985C5.38007 16.7169 5.26877 16.3326 5.20737 15.581C5.14433 14.8094 5.143 13.8112 5.143 12.3428V11.657C5.143 10.1886 5.14433 9.19044 5.20737 8.41884C5.26877 7.66721 5.38007 7.28287 5.51669 7.01475C5.8454 6.36966 6.3699 5.84516 7.015 5.51644C7.28311 5.37983 7.66745 5.26853 8.41908 5.20712C9.19068 5.14409 10.1888 5.14275 11.6573 5.14275Z" fill="white"/>
</g>
<defs>
<radialGradient id="paint0_radial_229_961" cx="0" cy="0" r="1" gradientUnits="userSpaceOnUse" gradientTransform="translate(8.57143 18) rotate(-55.3758) scale(21.8739)">
<stop stop-color="#B13589"/>
<stop offset="0.79309" stop-color="#C62F94"/>
<stop offset="1" stop-color="#8A3AC8"/>
</radialGradient>
<radialGradient id="paint1_radial_229_961" cx="0" cy="0" r="1" gradientUnits="userSpaceOnUse" gradientTransform="translate(7.71429 24.8571) rotate(-65.1363) scale(19.3665)">
<stop stop-color="#E0E8B7"/>
<stop offset="0.444662" stop-color="#FB8A2E"/>
<stop offset="0.71474" stop-color="#E2425C"/>
<stop offset="1" stop-color="#E2425C" stop-opacity="0"/>
</radialGradient>
<radialGradient id="paint2_radial_229_961" cx="0" cy="0" r="1" gradientUnits="userSpaceOnUse" gradientTransform="translate(-1.28571 0.857143) rotate(-8.1301) scale(33.3351 7.13002)">
<stop offset="0.156701" stop-color="#406ADC"/>
<stop offset="0.467799" stop-color="#6A45BE"/>
<stop offset="1" stop-color="#6A45BE" stop-opacity="0"/>
</radialGradient>
</defs>
</svg>
