<svg width="24" height="24" viewBox="0 0 24 24" fill="none" xmlns="http://www.w3.org/2000/svg">
<g id="Group 5">
<path id="Vector" d="M12 24C18.6274 24 24 18.6274 24 12C24 5.37258 18.6274 0 12 0C5.37258 0 0 5.37258 0 12C0 18.6274 5.37258 24 12 24Z" fill="#0077B5"/>
<path id="Vector_2" fill-rule="evenodd" clip-rule="evenodd" d="M8.8648 6.17039C8.8648 6.91745 8.296 7.52201 7.4065 7.52201C6.55162 7.52201 5.98276 6.91745 6.0004 6.17039C5.98276 5.38703 6.55156 4.80005 7.42354 4.80005C8.296 4.80005 8.84776 5.38703 8.8648 6.17039ZM6.07192 17.2915V8.58977H8.77624V17.2909L6.07192 17.2915Z" fill="white"/>
<path id="Vector_3" fill-rule="evenodd" clip-rule="evenodd" d="M10.9436 11.3669C10.9436 10.2816 10.9078 9.35623 10.8721 8.59105H13.2211L13.3459 9.78313H13.3993C13.7552 9.23137 14.6448 8.39575 16.0861 8.39575C17.8651 8.39575 19.1997 9.57025 19.1997 12.1315V17.2927H16.4953V12.4704C16.4953 11.3488 16.1042 10.5841 15.1256 10.5841C14.378 10.5841 13.9335 11.1001 13.7558 11.598C13.6843 11.7762 13.6491 12.0249 13.6491 12.2746V17.2927H10.9447V11.3669H10.9436Z" fill="white"/>
</g>
</svg>
