<svg width="101" height="27" viewBox="0 0 101 27" fill="none" xmlns="http://www.w3.org/2000/svg">
<circle cx="12" cy="12" r="12" fill="white"/>
<path d="M14.8995 10.0487L16.4829 7.70386V6H8.56553V8.10953H13.3806L10.1732 13.1318H12.3142L13.3806 11.5903C14.8671 11.5903 15.1903 13.4158 15.061 14.3246C14.8995 15.6065 14.1077 15.9716 12.7989 15.9716C11.6194 15.9716 9.87433 14.9736 9.01795 14.3246L8 16.3367C9.09874 17.1156 10.6661 18 12.2496 18C15.465 18 17 15.8012 17 13.8864C17 12.215 16.9354 10.3732 14.8995 10.0487Z" fill="#002478"/>
<path d="M37.008 4.12V6.268H30.456V7.552H36V9.64H30.456V13H27.492V4.12H37.008ZM40.7802 13H37.8162V4.12H40.7802V13ZM44.7294 13H41.7654V4.12L44.7294 13ZM53.1054 13H50.1534H53.1054ZM50.1534 9.556V4.12H53.1054V13H50.1534L44.7294 7.564V13H41.7654V4.12H44.7294L50.1534 9.556ZM66.0453 13H63.0573L62.2293 11.476H57.2013L56.3733 13H53.3853L58.1973 4.12H61.2333L66.0453 13ZM59.7213 6.832L58.2813 9.472H61.1493L59.7213 6.832ZM69.2685 13H66.3045V4.12L69.2685 13ZM77.6445 13H74.6925H77.6445ZM74.6925 9.556V4.12H77.6445V13H74.6925L69.2685 7.564V13H66.3045V4.12H69.2685L74.6925 9.556ZM78.4043 8.572C78.4043 7.684 78.6643 6.884 79.1843 6.172C79.7123 5.46 80.4283 4.904 81.3323 4.504C82.2443 4.096 83.2523 3.892 84.3563 3.892C85.3483 3.892 86.2443 4.052 87.0443 4.372C87.8443 4.684 88.5003 5.128 89.0123 5.704C89.5243 6.272 89.8643 6.94 90.0323 7.708H86.9603C86.8403 7.388 86.6363 7.112 86.3483 6.88C86.0683 6.64 85.7523 6.46 85.4003 6.34C85.0483 6.22 84.7043 6.16 84.3683 6.16C83.8963 6.16 83.4363 6.256 82.9883 6.448C82.5483 6.64 82.1883 6.92 81.9083 7.288C81.6363 7.648 81.5003 8.076 81.5003 8.572C81.5003 9.068 81.6363 9.5 81.9083 9.868C82.1803 10.228 82.5323 10.504 82.9643 10.696C83.4043 10.88 83.8723 10.972 84.3683 10.972C84.9203 10.972 85.4283 10.84 85.8923 10.576C86.3643 10.312 86.7123 9.936 86.9363 9.448H90.0203C89.8443 10.208 89.5003 10.876 88.9883 11.452C88.4763 12.02 87.8243 12.46 87.0323 12.772C86.2403 13.084 85.3483 13.24 84.3563 13.24C83.2603 13.24 82.2563 13.036 81.3443 12.628C80.4403 12.22 79.7243 11.66 79.1963 10.948C78.6683 10.236 78.4043 9.444 78.4043 8.572ZM99.2813 9.544H93.7373V10.9L100.289 10.852V13H90.7733V4.12H100.289L100.301 6.268H93.7373V7.444H99.2813V9.544Z" fill="white"/>
<path d="M31.84 18.75C32.7 18.75 33.42 18.79 34 18.87C34.5867 18.9433 35.0733 19.12 35.46 19.4C35.8467 19.68 36.04 20.1033 36.04 20.67C36.04 21.6767 35.6033 22.3567 34.73 22.71C33.8633 23.0567 32.8833 23.23 31.79 23.23C31.1967 23.23 30.5733 23.1633 29.92 23.03C29.2667 22.9033 28.6833 22.6433 28.17 22.25C27.6567 21.85 27.4 21.2867 27.4 20.56L28.77 20.52C28.77 20.9867 28.9533 21.3333 29.32 21.56C29.6933 21.7867 30.1 21.9267 30.54 21.98C30.98 22.0333 31.4467 22.06 31.94 22.06C32.7 22.06 33.35 21.9567 33.89 21.75C34.4367 21.5433 34.7133 21.1967 34.72 20.71V20.7C34.72 20.3733 34.4533 20.1667 33.92 20.08C33.3867 19.9867 32.7333 19.94 31.96 19.94H31.7C30.7267 19.9333 29.9467 19.89 29.36 19.81C28.78 19.73 28.3067 19.5433 27.94 19.25C27.58 18.9567 27.4 18.5033 27.4 17.89C27.4 16.8567 27.8567 16.18 28.77 15.86C29.69 15.54 30.6967 15.38 31.79 15.38C32.3567 15.38 32.9567 15.4467 33.59 15.58C34.2233 15.7067 34.79 15.97 35.29 16.37C35.79 16.7633 36.04 17.3233 36.04 18.05H34.67C34.67 17.5767 34.3933 17.22 33.84 16.98C33.2933 16.7333 32.6233 16.5933 31.83 16.56C30.9633 16.56 30.2267 16.6667 29.62 16.88C29.02 17.0867 28.72 17.4133 28.72 17.86C28.72 18.2333 29 18.4767 29.56 18.59C30.12 18.6967 30.79 18.75 31.57 18.75H31.58H31.75H31.83H31.84ZM36.8434 19.31C36.8434 18.57 37.04 17.9033 37.4334 17.31C37.8334 16.7167 38.3767 16.2533 39.0634 15.92C39.75 15.58 40.5134 15.41 41.3534 15.41C42.36 15.41 43.2434 15.66 44.0034 16.16C44.77 16.66 45.3234 17.37 45.6634 18.29L44.3034 18.31C44.1634 17.9367 43.9267 17.6167 43.5934 17.35C43.26 17.0833 42.89 16.8833 42.4834 16.75C42.0834 16.61 41.71 16.54 41.3634 16.54C40.8434 16.54 40.3334 16.65 39.8334 16.87C39.34 17.0833 38.9334 17.4 38.6134 17.82C38.3 18.24 38.1434 18.7367 38.1434 19.31C38.1434 19.8967 38.29 20.3967 38.5834 20.81C38.8767 21.2233 39.2667 21.5367 39.7534 21.75C40.2467 21.9633 40.7834 22.07 41.3634 22.07C41.7034 22.07 42.06 22.0067 42.4334 21.88C42.8067 21.7467 43.1567 21.55 43.4834 21.29C43.81 21.03 44.07 20.7133 44.2634 20.34H45.6734C45.3 21.2733 44.7367 21.9833 43.9834 22.47C43.2367 22.9567 42.36 23.2 41.3534 23.2C40.52 23.2 39.7567 23.03 39.0634 22.69C38.3767 22.35 37.8334 21.8833 37.4334 21.29C37.04 20.6967 36.8434 20.0367 36.8434 19.31ZM47.9723 18.41H53.2723V15.6H54.5723V23H53.2723V19.61H47.9723V23H46.6723V15.6H47.9723V18.41ZM60.0038 15.44C60.8505 15.44 61.6105 15.61 62.2838 15.95C62.9638 16.2833 63.4938 16.7467 63.8738 17.34C64.2605 17.9267 64.4538 18.59 64.4538 19.33C64.4538 20.0633 64.2605 20.7233 63.8738 21.31C63.4938 21.8967 62.9672 22.36 62.2938 22.7C61.6205 23.0333 60.8605 23.2 60.0138 23.2C59.1938 23.2 58.4405 23.0333 57.7538 22.7C57.0672 22.36 56.5238 21.8967 56.1238 21.31C55.7238 20.7167 55.5238 20.0567 55.5238 19.33C55.5238 18.5967 55.7238 17.9333 56.1238 17.34C56.5238 16.7467 57.0638 16.2833 57.7438 15.95C58.4305 15.61 59.1838 15.44 60.0038 15.44ZM60.0038 22.07C60.5438 22.07 61.0538 21.9633 61.5338 21.75C62.0138 21.5367 62.4005 21.2233 62.6938 20.81C62.9872 20.3967 63.1338 19.9033 63.1338 19.33C63.1338 18.77 62.9838 18.28 62.6838 17.86C62.3905 17.44 62.0005 17.12 61.5138 16.9C61.0272 16.68 60.5138 16.57 59.9738 16.57C59.3872 16.57 58.8538 16.68 58.3738 16.9C57.9005 17.12 57.5272 17.44 57.2538 17.86C56.9805 18.2733 56.8438 18.7633 56.8438 19.33C56.8438 19.91 56.9872 20.4067 57.2738 20.82C57.5672 21.2333 57.9538 21.5467 58.4338 21.76C58.9138 21.9667 59.4372 22.07 60.0038 22.07ZM69.6327 15.44C70.4794 15.44 71.2394 15.61 71.9127 15.95C72.5927 16.2833 73.1227 16.7467 73.5027 17.34C73.8894 17.9267 74.0827 18.59 74.0827 19.33C74.0827 20.0633 73.8894 20.7233 73.5027 21.31C73.1227 21.8967 72.5961 22.36 71.9227 22.7C71.2494 23.0333 70.4894 23.2 69.6427 23.2C68.8227 23.2 68.0694 23.0333 67.3827 22.7C66.6961 22.36 66.1527 21.8967 65.7527 21.31C65.3527 20.7167 65.1527 20.0567 65.1527 19.33C65.1527 18.5967 65.3527 17.9333 65.7527 17.34C66.1527 16.7467 66.6927 16.2833 67.3727 15.95C68.0594 15.61 68.8127 15.44 69.6327 15.44ZM69.6327 22.07C70.1727 22.07 70.6827 21.9633 71.1627 21.75C71.6427 21.5367 72.0294 21.2233 72.3227 20.81C72.6161 20.3967 72.7627 19.9033 72.7627 19.33C72.7627 18.77 72.6127 18.28 72.3127 17.86C72.0194 17.44 71.6294 17.12 71.1427 16.9C70.6561 16.68 70.1427 16.57 69.6027 16.57C69.0161 16.57 68.4827 16.68 68.0027 16.9C67.5294 17.12 67.1561 17.44 66.8827 17.86C66.6094 18.2733 66.4727 18.7633 66.4727 19.33C66.4727 19.91 66.6161 20.4067 66.9027 20.82C67.1961 21.2333 67.5827 21.5467 68.0627 21.76C68.5427 21.9667 69.0661 22.07 69.6327 22.07ZM76.3316 15.6V21.87H81.6316V23H75.0316V15.6H76.3316Z" fill="white"/>
</svg>
