<svg width="17" height="12" viewBox="0 0 17 12" fill="none" xmlns="http://www.w3.org/2000/svg">
<path d="M14.6774 0C15.5055 0 16.1774 0.671562 16.1774 1.5C16.1774 1.97187 15.9555 2.41562 15.5774 2.7L8.77737 7.8C8.42112 8.06563 7.93362 8.06563 7.57737 7.8L0.777368 2.7C0.399649 2.41562 0.177368 1.97187 0.177368 1.5C0.177368 0.671562 0.848931 0 1.67737 0H14.6774ZM6.97737 8.6C7.68987 9.13438 8.66487 9.13438 9.37737 8.6L16.1774 3.5V10C16.1774 11.1031 15.2805 12 14.1774 12H2.17737C1.07268 12 0.177368 11.1031 0.177368 10V3.5L6.97737 8.6Z" fill="black"/>
</svg>
