<svg width="11" height="11" viewBox="0 0 11 11" fill="none" xmlns="http://www.w3.org/2000/svg">
<path d="M10.2845 7.95587L9.7512 9.90466C9.67622 10.1802 9.42394 10.3649 9.13765 10.3533C4.21415 10.1537 0.371589 5.98722 0.570745 1.06352C0.582317 0.777421 0.786763 0.540568 1.06744 0.488393L3.05294 0.11423C3.34211 0.0594266 3.62882 0.219974 3.73689 0.49609L4.5591 2.65022C4.65513 2.90392 4.5718 3.19161 4.35508 3.35446L3.27025 4.15561C3.87874 5.53328 4.93263 6.67603 6.25703 7.3942L7.15974 6.37908C7.33779 6.17556 7.63351 6.11461 7.87854 6.23271L9.95924 7.22602C10.2085 7.37029 10.3624 7.67363 10.2845 7.95587Z" fill="white"/>
</svg>
