<svg width="16" height="16" viewBox="0 0 16 16" fill="none" xmlns="http://www.w3.org/2000/svg">
<path d="M15.3037 12.0623L14.4937 15.0225C14.3798 15.441 13.9965 15.7215 13.5617 15.704C6.08288 15.4009 0.246035 9.07192 0.548552 1.59281C0.56613 1.15823 0.876684 0.798452 1.30303 0.719197L4.319 0.150844C4.75825 0.067598 5.19377 0.311469 5.35792 0.73089L6.60685 4.00301C6.75273 4.38838 6.62615 4.82538 6.29695 5.07276L4.6491 6.2897C5.57339 8.38238 7.17426 10.1182 9.18602 11.2091L10.5572 9.66714C10.8277 9.358 11.2769 9.26542 11.6491 9.44482L14.8097 10.9536C15.1883 11.1728 15.422 11.6336 15.3037 12.0623Z" fill="black"/>
</svg>
