<svg width="20" height="17" viewBox="0 0 20 17" fill="none" xmlns="http://www.w3.org/2000/svg">
<path d="M17.2243 4.62997C17.2364 4.79875 17.2364 4.96756 17.2364 5.13633C17.2364 10.2841 13.3182 16.2156 6.15706 16.2156C3.95083 16.2156 1.90136 15.5766 0.177368 14.4676C0.490831 14.5037 0.792196 14.5158 1.11772 14.5158C2.93812 14.5158 4.6139 13.9009 5.95211 12.8521C4.24018 12.8159 2.80553 11.6947 2.31123 10.1516C2.55237 10.1877 2.79347 10.2118 3.04666 10.2118C3.39627 10.2118 3.74592 10.1636 4.0714 10.0792C2.28715 9.71752 0.948909 8.15028 0.948909 6.25752V6.20931C1.46729 6.49865 2.07013 6.67949 2.70904 6.70357C1.66018 6.00432 0.97303 4.81081 0.97303 3.46055C0.97303 2.73721 1.16589 2.07414 1.50347 1.49546C3.42036 3.85839 6.30171 5.40151 9.53264 5.57032C9.47238 5.28098 9.43619 4.97962 9.43619 4.67822C9.43619 2.53225 11.1722 0.78418 13.3302 0.78418C14.4514 0.78418 15.4641 1.25436 16.1754 2.01387C17.0555 1.8451 17.8994 1.51958 18.6469 1.07352C18.3575 1.97773 17.7426 2.73725 16.9349 3.21945C17.7186 3.1351 18.4781 2.91804 19.1773 2.61668C18.6469 3.38822 17.9838 4.07537 17.2243 4.62997Z" fill="black"/>
</svg>
