<svg width="10" height="10" viewBox="0 0 10 10" fill="none" xmlns="http://www.w3.org/2000/svg">
<path d="M8.97207 2.96319C8.97842 3.05202 8.97842 3.14086 8.97842 3.22969C8.97842 5.93907 6.91625 9.0609 3.14721 9.0609C1.98603 9.0609 0.907363 8.72459 0 8.14086C0.16498 8.15989 0.323594 8.16624 0.494922 8.16624C1.45303 8.16624 2.33502 7.84264 3.03934 7.29061C2.13832 7.27157 1.38324 6.68147 1.12309 5.86928C1.25 5.88831 1.37689 5.901 1.51016 5.901C1.69416 5.901 1.87818 5.87561 2.04949 5.83122C1.11041 5.64084 0.406074 4.81598 0.406074 3.81979V3.79442C0.678906 3.9467 0.996191 4.04188 1.33246 4.05456C0.78043 3.68653 0.41877 3.05836 0.41877 2.3477C0.41877 1.967 0.520273 1.61801 0.697949 1.31344C1.70684 2.55709 3.22334 3.36926 4.92383 3.45811C4.89211 3.30583 4.87307 3.14721 4.87307 2.98858C4.87307 1.85913 5.78678 0.939087 6.92256 0.939087C7.51266 0.939087 8.04564 1.18655 8.42002 1.58629C8.8832 1.49747 9.32736 1.32614 9.72078 1.09137C9.56848 1.56727 9.24488 1.96702 8.81977 2.22081C9.23221 2.17641 9.63195 2.06217 9.99996 1.90356C9.72082 2.30963 9.37182 2.67129 8.97207 2.96319Z" fill="white"/>
</svg>
